<?xml version="1.0" standalone="no"?>
<!DOCTYPE svg PUBLIC "-//W3C//DTD SVG 20010904//EN"
 "http://www.w3.org/TR/2001/REC-SVG-20010904/DTD/svg10.dtd">
<svg version="1.0" xmlns="http://www.w3.org/2000/svg"
 width="660.000000pt" height="612.000000pt" viewBox="0 0 660.000000 612.000000"
 preserveAspectRatio="xMidYMid meet">
<metadata>
Created by potrace 1.16, written by Peter Selinger 2001-2019
</metadata>
<g transform="translate(0.000000,612.000000) scale(0.100000,-0.100000)"
fill="#000000" stroke="none">
<path d="M660 5938 c-1 -2 -9 -95 -19 -208 l-18 -205 30 -32 c31 -33 32 -33
127 -33 129 0 349 -18 434 -35 37 -8 88 -26 112 -40 37 -21 46 -33 59 -77 33
-113 36 -340 32 -2368 -4 -2240 0 -2124 -72 -2186 -62 -55 -189 -80 -462 -90
-168 -7 -170 -7 -201 -35 l-32 -29 0 -210 0 -210 883 0 c486 0 1681 3 2655 7
l1770 6 7 801 c3 441 6 844 5 896 -2 300 -117 596 -318 821 -197 221 -395 356
-692 473 l-110 43 107 52 c163 79 264 151 393 281 162 161 255 302 319 484 43
121 61 236 61 385 0 150 -19 270 -65 408 -104 313 -307 579 -583 764 -290 194
-583 273 -1192 320 -130 10 -3229 27 -3230 17z m1160 -323 l0 -35 -169 0 -169
0 -52 35 -52 35 221 0 221 0 0 -35z m920 0 l0 -35 -410 0 -410 0 0 35 0 35
410 0 410 0 0 -35z m1140 14 c91 -6 210 -16 265 -22 l100 -12 3 -344 2 -344
-44 89 c-91 180 -240 328 -426 423 -192 99 -365 135 -727 153 l-243 12 0 35 0
34 453 -6 c248 -4 526 -12 617 -18z m552 -69 c276 -61 481 -170 664 -354 142
-142 233 -285 297 -463 45 -123 60 -231 55 -388 -4 -128 -8 -149 -40 -243 -19
-56 -57 -139 -84 -184 -61 -102 -218 -268 -319 -337 -128 -89 -392 -204 -575
-251 -93 -24 -148 -39 -255 -69 -38 -10 -101 -27 -139 -37 -53 -14 -65 -20
-50 -26 10 -4 136 -34 280 -67 524 -120 863 -273 1089 -492 213 -206 319 -439
332 -729 23 -513 -235 -910 -762 -1173 -154 -77 -336 -138 -567 -191 l-28 -6
0 303 0 304 30 66 c73 162 110 353 110 572 0 391 -115 724 -328 946 -236 248
-521 336 -1174 365 l-158 7 0 58 c0 58 0 58 33 63 17 3 96 8 175 11 476 19
769 118 995 339 153 150 239 311 290 546 19 89 20 136 24 773 2 372 7 677 11
677 4 0 46 -9 94 -20z m-2612 -1180 l0 -1080 -65 0 -65 0 0 768 c-1 1023 -11
1202 -79 1335 l-30 57 120 0 119 0 0 -1080z m920 0 l0 -1080 -410 0 -410 0 0
1080 0 1080 410 0 410 0 0 -1080z m520 899 c449 -49 710 -256 797 -633 13 -53
17 -119 17 -261 -1 -173 -3 -199 -27 -287 -64 -240 -206 -405 -442 -514 -129
-60 -402 -114 -572 -114 l-63 0 0 914 0 914 98 -4 c53 -3 140 -9 192 -15z
m-1440 -2109 l0 -60 -65 0 -65 0 0 60 0 60 65 0 65 0 0 -60z m920 0 l0 -60
-410 0 -410 0 0 60 0 60 410 0 410 0 0 -60z m-920 -1410 l0 -1290 -217 0 -218
1 30 22 c87 64 178 173 211 254 54 127 64 350 64 1421 l0 882 65 0 65 0 0
-1290z m920 0 l0 -1290 -410 0 -410 0 0 1290 0 1290 410 0 410 0 0 -1290z
m611 1096 c236 -32 431 -103 546 -198 159 -133 275 -370 314 -646 17 -120 6
-375 -20 -472 -54 -205 -134 -345 -264 -466 -122 -114 -269 -187 -452 -225
-104 -22 -281 -27 -342 -10 -86 24 -136 92 -153 208 -6 40 -10 427 -10 952 l0
884 133 -6 c72 -3 184 -13 248 -21z m892 -2317 c-13 -12 -256 -38 -497 -54
-134 -9 -377 -15 -583 -15 l-353 0 0 139 0 139 63 -62 c106 -106 209 -141 407
-140 249 2 482 70 679 198 76 49 224 185 262 241 l24 34 3 -236 c1 -130 -1
-240 -5 -244z"/>
</g>
</svg>
